<?xml version="1.0" encoding="UTF-8" standalone="no"?>
<!-- Created with Inkscape (http://www.inkscape.org/) -->

<svg
   version="1.1"
   id="svg1"
   width="922.81201"
   height="1141.35"
   viewBox="0 0 922.81201 1141.3499"
   xmlns="http://www.w3.org/2000/svg"
   xmlns:svg="http://www.w3.org/2000/svg">
  <defs
     id="defs1" />
  <g
     id="g4"
     style="display:inline">
    <path
       id="le"
       fill="#00000000" style="display:inline;opacity:1;fill-rule:evenodd;stroke:#000000"
       d="m 48.171063,266.1049 0.736226,-8.39062 171.620361,-0.12053 8.0183,9.18865 6.34678,-0.0522 1.64541,4.17231 0.0108,26.64893 -6.52098,0.0423 V 441.0976 l -8.93459,0.0876 -0.0153,8.97693 H 48.73254 l 0.01063,-6.30656 -8.82919,-1.55521 V 266.85201 Z"
       
       data-important="1">
      <title
         id="title10">Laboratorio de Eléctrica</title>
    </path>
    <path
       id="lim"
       fill="#00000000" style="display:inline;opacity:1;fill-rule:evenodd;stroke:#000000"
       d="m 48.852541,480.87261 0.03464,-8.95189 172.228399,-0.12053 -0.0733,7.59839 7.93704,1.77192 7.53873,3.75136 0.0108,33.19706 -6.52098,0.0423 v 140.5572 l -8.32655,2.37945 -0.62334,7.05926 H 48.712435 l 0.0106,-8.87904 -8.82916,-0.10526 V 480.87136 Z"
       
       data-important="1">
      <title
         id="title11">Laboratorio de Instalaciones Mecánicas</title>
    </path>
    <path
       id="li"
       fill="#00000000" style="display:inline;opacity:1;fill-rule:evenodd;stroke:#000000"
       d="m 48.191613,696.89683 0.73623,-5.70462 172.153197,0.006 0.0344,8.96663 8.66895,0.019 1.5006,3.88056 5.2737,-0.0142 0.0108,30.67689 -6.52098,4.2854 V 877.2226 l -10.11772,6.41746 H 48.753093 l 0.08846,-9.07042 -8.98487,0.0797 V 699.23997 Z"
       
       data-important="1">
      <title
         id="title12">Laboratorio de Industrial</title>
    </path>
    <path
       id="lf"
       fill="#00000000" style="display:inline;opacity:1;fill-rule:evenodd;stroke:#000000"
       d="m 873.89815,444.90062 0.0199,5.32401 -172.25048,-0.005 0.005,-9.10463 -8.9513,0.0522 -0.0487,-3.85697 -6.43892,0.0179 -0.0102,-31.21988 6.48252,-4.92673 -0.0769,-134.46575 2.55654,0.0686 5.93126,-9.00705 172.59758,0.042 0.91358,8.32297 8.28305,0.58901 0.042,174.39814 z"
       
       data-important="1">
      <title
         id="title22">Laboratorio de Física</title>
    </path>
    <path
       id="lq"
       fill="#00000000" style="display:inline;opacity:1;fill-rule:evenodd;stroke:#000000"
       d="m 874.57372,659.82825 -0.78468,8.28632 -172.03105,-0.005 -0.14129,-6.10575 -15.29263,-5.98117 -0.0102,-32.68275 5.71451,-0.8307 0.69111,-141.70695 5.84799,0.0686 3.0461,-3.08041 0.10571,-5.92664 172.1953,0.042 0.0724,8.87155 9.01448,0.0404 0.042,178.2016 z"
       
       data-important="1">
      <title
         id="title21">Laboratorio de Química</title>
    </path>
    <path
       id="lm"
       fill="#00000000" style="display:inline;opacity:1;fill-rule:evenodd;stroke:#000000"
       d="m 874.57842,875.32198 -0.85064,8.27415 -171.37994,-0.005 -7.29782,-8.95954 -5.95279,-0.0929 -2.76367,-2.87181 -0.0102,-27.83447 5.66035,-0.76751 0.74527,-142.97764 8.94046,0.0686 0.031,-9.00705 172.11395,0.042 0.13977,4.88919 9.05686,2.86208 0.042,175.55885 z"
       
       data-important="1">
      <title
         id="title20">Laboratorio de Mecánica</title>
    </path>
    <path
       id="sp"
       fill="#00000000" style="display:inline;opacity:1;fill-rule:evenodd;stroke:#000000;stroke-width:0.81231"
       d="m 443.5388,1090.1462 7.54966,-0.1215 0.079,-114.23764 -9.0526,0.14727 0.12268,-7.66381 -34.73645,-0.14054 -0.74245,7.08181 -142.02387,0.65345 -0.003,123.19126 c 60.67249,0.1539 116.76146,0.077 177.43434,0.087 l -0.0426,-5.0975 z"
       
       data-important="1">
      <title
         id="title15">Salón de Proyecciones</title>
         <desc>Salon con pintura verde interna, paralelo al Salón 1.
         (Adentro está la oficina de Ing. Otto Soto)</desc>
    </path>
    <path
       id="s1"
       fill="#00000000" style="display:inline;opacity:1;fill-rule:evenodd;stroke:#000000;stroke-width:0.81231"
       d="m 479.8989,50.60491 -8.26988,0.841696 -0.0447,114.031864 9.08691,0.0242 -0.0198,7.6295 34.56497,0.003 0.81105,-7.08182 141.98957,-0.61914 -0.0313,-123.191271 -177.18596,0.03764 z"
       
       data-important="1">
      <title
         id="title25">Salón 1</title>
    </path>
    <path
       id="s3"
       fill="#00000000" style="opacity:1;fill-rule:evenodd;stroke:#000000"
       d="m 757.03696,132.01756 125.85591,0.0552 v 89.36302 l -8.35952,8.08214 H 756.8713 l 0.0256,-9.0211 -6.51278,0.22089 0.0389,-27.67611 6.57762,-8.93762 z"
       
       data-important="1">
      <title
         id="title23">Salón 3</title>
         <desc>Ubicado al lado derecho del Salón 1 y después del Laboratorio de Física.</desc>
    </path>
    <path
       id="s2"
       fill="#00000000" style="opacity:1;fill-rule:evenodd;stroke:#000000"
       d="m 695.3583,51.191357 3.7118,-8.912732 h 174.76078 l 0.82881,8.419246 8.33612,0.719512 -0.0509,48.653687 -154.01387,0.0343 -5.44246,8.89115 -30.56846,0.0802 -0.89111,-8.32578 -8.43554,-0.846712 -4e-5,-48.656072 z"
       
       data-important="1">
      <title
         id="title24">Salón 2 (TICS)</title>
         <desc>Al lado izquierdo del Salón 3.</desc>
    </path>
    <path
       id="c"
       fill="#00000000" style="opacity:1;fill-rule:evenodd;stroke:#000000"
       d="m 165.81798,1009.2979 -126.008528,0.037 0.06105,-90.79768 8.695287,-6.73908 117.234701,-0.061 0.005,9.05162 6.48225,-0.007 -0.0389,27.30982 -6.39447,8.38818 z"
       
       data-important="0">
      <title
         id="title13">Coordinación</title>
         <desc>Ubicado al lado derecho del Salon de Proyecciones y despues del Laboratorio de Industrial.</desc>
    </path>
    <path
       id="admin"
       fill="#00000000" style="opacity:1;fill-rule:evenodd;stroke:#000000"
       d="m 227.51652,1090.0334 -4.35007,9.06 -174.269801,-0.049 -0.11689,-8.9838 -8.925295,-0.057 0.124547,-49.9548 154.774889,-0.034 4.82873,-8.9893 30.42117,0.018 0.007,9.0131 9.07381,0.012 0.0246,49.9816 z"
       
       data-important="0">
      <title
         id="title14">Administración de Ingeniería</title>
         <desc>Al lado izquierdo de Coordinación.</desc>
    </path>
    <path
       id="shp"
       fill="#00000000" style="opacity:1;fill-rule:evenodd;stroke:#000000;stroke-width:0.992116"
       d="m 774.93644,1000.3663 107.93458,-0.1246 0.10444,-81.81553 -8.43708,-6.68958 -99.62569,0.0696 -0.01,31.96507 -6.44531,-0.0468 -0.10126,26.14429 6.50911,8.41541 z"
       
       data-important="1">
      <title
         id="title19">Salón Hugo Pineda</title>
         
         <desc>Desde las gradas(sur) a mano derecha.</desc>
    </path>
    <path
       id="eps"
       fill="#00000000" style="opacity:1;fill-rule:evenodd;stroke:#000000;stroke-width:0.992116"
       d="m 699.1502,1095.1318 -0.15249,3.9953 174.82545,0.028 0.8158,-8.4193 8.2052,-0.7195 -0.15029,-59.3849 -140.56297,0.2669 -5.357,-8.8911 -30.0884,-0.08 -0.8771,8.3258 -13.21742,0.7464 0.0988,57.7773 z"
       
       data-important="0">
      <title
         id="title18">Departamento de EPS</title>
         <desc>Al lado derecho del Salón Hugo Pineda.</desc>
    </path>
    <path
       id="dm"
       fill="#00000000" style="opacity:1;fill-rule:evenodd;stroke:#000000;stroke-width:0.992116"
       d="m 147.96961,140.68165 -108.132578,0.38201 0.09357,81.55812 8.43708,7.20969 99.625678,-0.0696 -0.2492,-32.26301 6.44531,0.0468 0.21235,-26.99594 -6.50911,-8.41541 z"
       
       data-important="0">
      <title
         id="title9">Departamento de Matemática</title>
         <desc>Desde las gradas (norte) a mano derecha.</desc>
    </path>
    <path
       id="si"
       fill="#00000000" style="opacity:1;fill-rule:evenodd;stroke:#000000;stroke-width:0.992116"
       d="m 226.09238,49.934983 -3.02519,-7.593559 -174.311406,-0.401845 -0.8158,8.4193 -8.2052,0.7195 0.15029,59.384901 140.890076,0.0135 4.46912,7.72284 30.13513,-0.10692 0.97056,-7.11081 13.638,-0.88659 -0.37919,-58.898837 z"
       
       data-important="0">
      <title
         id="title8">Salón de Investigaciones</title>
         <desc>Al lado derecho del Depto. de Matemáticas.</desc>
    </path>
    <path
       id="bhn"
       fill="#00000000" style="opacity:1;fill-rule:evenodd;stroke:#000000"
       d="m 264.09666,50.618793 0.82266,-8.32536 25.62078,0.03916 0.0733,94.911657 -3.94159,-0.0359 -0.15363,6.5178 h -29.14774 l -1.58573,-4.03099 V 51.452286 Z"
       
       data-important="0">
      <title
         id="title6">Baño de Hombres (Norte)</title>
    </path>
    <path
       id="bmn"
       fill="#00000000" style="opacity:1;fill-rule:evenodd;stroke:#000000;stroke-width:1.05331"
       d="m 442.04643,49.687014 0.23258,-7.38459 -29.69316,-0.124452 -0.10642,95.062368 2.58966,0.0394 0.0534,4.6918 1.76237,1.77577 29.73839,-0.77866 0.72945,-5.68877 3.79281,-0.0356 V 51.297665 l -5.02553,-0.06573 z"
       
       data-important="0">
      <title
         id="title4">Baño de Mujeres (Norte)</title>
    </path>
    <path
       id="gn1"
       fill="#00000000" style="opacity:0.5;fill-rule:evenodd;stroke:#000000"
       d="m 352.59422,76.773082 h 53.5138 l -0.48896,98.503988 -52.49243,0.0464 z"
       
       data-important="0">
      <title
         id="title5">Gradas a Primer Nivel(Norte)</title>
    </path>
    <path
       id="gn3"
       fill="#00000000" style="opacity:0.5;fill-rule:evenodd;stroke:#000000"
       d="m 297.29733,55.759079 h 53.5138 l 1.91145,120.400551 -54.40388,-0.33589 z"
       
       data-important="0">
      <title
         id="title7">Gradas a Tercer Nivel(Norte)</title>
    </path>
    <path
       id="gs3"
       fill="#00000000" style="opacity:0.5;fill-rule:evenodd;stroke:#000000"
       d="m 570.00927,966.73788 h 53.5138 l 2.45556,119.07382 -54.00354,-0.1429 z"
       
       data-important="0">
      <title
         id="title27">Gradas a Tercer Nivel (Sur)</title>
    </path>
    <path
       id="gs1"
       fill="#00000000" style="opacity:0.5;fill-rule:evenodd;stroke:#000000"
       d="m 517.32056,965.89969 51.50612,-0.44615 0.2995,98.35926 -53.01501,-0.2676 z"
       
       data-important="0">
      <title
         id="title26">Gradas a Primer Nivel (Sur)</title>
    </path>
    <path
       id="bms"
       fill="#00000000" style="opacity:1;fill-rule:evenodd;stroke:#000000"
       d="m 658.62243,1090.7058 -0.75354,8.3254 -26.89951,-0.039 -0.004,-95.0844 5.16848,-1.4328 -0.0192,-4.75512 29.32054,-0.0173 1.60301,3.99602 0.0173,88.191 z"
       
       data-important="0">
      <title
         id="title17">Baño de Mujeres (admin)</title>
         <desc>Este baño no está habilitado para los estudiantes, unicamente para administración.</desc>
    </path>
    <path
       id="bhs"
       fill="#00000000" style="opacity:1;fill-rule:evenodd;stroke:#000000;stroke-width:1.05331"
       d="m 480.68465,1099.1073 30.77799,-0.099 0.0745,-94.9666 -3.89353,-1.6204 0.0943,-4.79048 -32.25901,-0.0191 -0.0913,5.24218 -3.76091,-0.028 -0.0319,87.2547 9.04576,0.034 z"
       
       data-important="0">
      <title
         id="title16">Baño de Hombres (Sur)</title>
    </path>
  </g>
</svg>
